<svg xmlns="http://www.w3.org/2000/svg" xmlns:xlink="http://www.w3.org/1999/xlink" preserveAspectRatio="xMidYMid" width="24.54" height="20.156" viewBox="0 0 24.54 20.156">
  <defs>
    <style>
      .cls-1 {
        fill: #c0b365;
        fill-rule: evenodd;
      }
    </style>
  </defs>
  <path d="M24.392,8.843 L19.799,19.140 C19.526,19.753 18.915,20.149 18.238,20.149 L6.324,20.149 C5.650,20.149 5.040,19.753 4.766,19.140 L0.173,8.843 C-0.061,8.318 -0.013,7.705 0.303,7.223 C0.617,6.741 1.157,6.448 1.734,6.448 L4.426,6.448 L6.978,0.993 C7.377,0.141 8.395,-0.228 9.249,0.168 C10.103,0.567 10.473,1.579 10.073,2.434 L8.195,6.448 L16.367,6.448 L14.492,2.434 C14.092,1.582 14.462,0.567 15.316,0.168 C16.170,-0.228 17.188,0.138 17.587,0.993 L20.136,6.448 L22.827,6.448 C23.408,6.448 23.948,6.738 24.262,7.223 C24.575,7.705 24.626,8.318 24.392,8.843 L24.392,8.843 Z" class="cls-1"/>
</svg>
