<svg xmlns="http://www.w3.org/2000/svg" xmlns:xlink="http://www.w3.org/1999/xlink" preserveAspectRatio="xMidYMid" width="12.407" height="13.06" viewBox="0 0 12.407 13.06">
  <defs>
    <style>
      .cls-1 {
        fill: #40646a;
        fill-rule: evenodd;
      }
    </style>
  </defs>
  <path d="M10.106,13.058 L1.077,13.058 C0.480,13.058 -0.007,12.568 -0.007,11.963 L-0.007,1.605 C-0.007,1.002 0.480,0.510 1.077,0.510 L1.520,0.510 C1.508,0.473 1.499,0.437 1.499,0.396 C1.499,0.184 1.668,0.012 1.876,0.012 C2.086,0.012 2.255,0.184 2.255,0.396 C2.255,0.437 2.243,0.473 2.232,0.510 L3.684,0.510 C3.672,0.473 3.661,0.437 3.661,0.396 C3.661,0.184 3.830,0.012 4.040,0.012 C4.250,0.012 4.419,0.184 4.419,0.396 C4.419,0.437 4.408,0.473 4.397,0.510 L5.848,0.510 C5.837,0.473 5.825,0.437 5.825,0.396 C5.825,0.184 5.995,0.012 6.205,0.012 C6.412,0.012 6.582,0.184 6.584,0.396 C6.584,0.437 6.573,0.473 6.561,0.510 L8.011,0.510 C7.999,0.473 7.990,0.437 7.990,0.396 C7.990,0.184 8.159,0.012 8.367,0.012 C8.577,0.012 8.746,0.184 8.746,0.396 C8.746,0.437 8.735,0.473 8.723,0.510 L10.175,0.510 C10.164,0.473 10.152,0.437 10.152,0.396 C10.152,0.184 10.321,0.012 10.531,0.012 C10.741,0.012 10.910,0.184 10.910,0.396 C10.910,0.437 10.899,0.473 10.888,0.510 L11.330,0.510 C11.929,0.510 12.414,1.002 12.414,1.605 L12.414,10.726 L10.106,13.058 ZM11.823,3.597 L0.584,3.597 L0.584,11.963 C0.584,12.237 0.805,12.461 1.077,12.461 L9.861,12.461 L9.983,12.338 L9.983,11.399 C9.983,10.961 10.339,10.602 10.772,10.602 L11.700,10.602 L11.823,10.479 L11.823,3.597 ZM8.301,10.199 L6.383,9.519 L4.740,10.728 L4.781,8.676 L3.139,7.472 L5.084,6.880 L5.710,4.929 L6.867,6.616 L8.901,6.609 L7.669,8.246 L8.301,10.199 Z" class="cls-1"/>
</svg>
