<svg xmlns="http://www.w3.org/2000/svg" xmlns:xlink="http://www.w3.org/1999/xlink" preserveAspectRatio="xMidYMid" width="74" height="47" viewBox="0 0 74 47">
  <defs>
    <style>
      .cls-1 {
        fill: #f5f4f3;
        fill-rule: evenodd;
      }
    </style>
  </defs>
  <path d="M72.916,41.737 L72.344,44.444 L65.251,39.149 C64.735,38.666 56.795,31.185 49.831,21.543 C42.889,11.932 36.982,-0.002 36.982,-0.002 L37.739,25.320 L45.947,39.174 L46.367,39.174 L38.161,25.282 L45.689,21.841 L46.369,39.174 L60.854,39.174 L60.854,40.103 L13.111,40.103 L13.111,39.174 L35.811,39.174 L36.982,-0.002 C36.982,-0.002 31.076,11.932 24.134,21.543 C16.932,31.514 8.686,39.174 8.686,39.174 L8.713,39.174 L1.654,44.444 L1.082,41.737 L-0.005,42.039 L1.719,46.996 L2.167,46.872 L1.790,45.087 L9.471,39.353 C9.532,39.308 9.569,39.243 9.584,39.174 L12.098,39.174 L12.098,45.438 L61.867,45.438 L61.867,39.174 L64.415,39.174 C64.429,39.243 64.466,39.308 64.527,39.353 L72.208,45.087 L71.831,46.872 L72.279,46.996 L74.003,42.039 L72.916,41.737 Z" class="cls-1"/>
</svg>
